<?xml version="1.0" encoding="UTF-8"?>
<svg version="1.1" xmlns="http://www.w3.org/2000/svg" width="600" height="600">
<path d="M0 0 C1.04953857 0.00757324 2.09907715 0.01514648 3.18041992 0.02294922 C20.92241641 0.39813692 34.65455363 6.9475483 47.1875 19.4375 C47.82558594 20.05238281 48.46367187 20.66726562 49.12109375 21.30078125 C56.68441648 29.16731069 63.1875 41.43507308 63.1875 52.4375 C63.96351563 52.28152344 64.73953125 52.12554687 65.5390625 51.96484375 C85.01009098 48.45634101 103.70700897 52.5630375 120.0234375 63.68945312 C136.14645745 75.56674449 146.89802414 92.88277238 150.58203125 112.54296875 C151.82854616 120.86968836 151.25876462 129.13519923 150.1875 137.4375 C150.84234375 137.87578125 151.4971875 138.3140625 152.171875 138.765625 C173.78117628 153.78225809 186.95998679 174.23169137 191.9140625 200.25390625 C195.87138599 226.82073795 189.23347218 250.43148626 174.1875 272.4375 C174.74824219 272.68113281 175.30898438 272.92476563 175.88671875 273.17578125 C180.58433863 275.75189538 184.28922097 279.80597723 188.1875 283.4375 C188.79980469 283.97246094 189.41210938 284.50742187 190.04296875 285.05859375 C208.58584344 302.01585445 216.81994296 328.70109941 218.06396484 353.03637695 C219.05506029 380.92667882 209.34681205 406.64803564 190.4375 427.05859375 C189.32375 428.23615234 189.32375 428.23615234 188.1875 429.4375 C187.5275 430.15035156 186.8675 430.86320312 186.1875 431.59765625 C180.90042668 437.12989628 174.84582806 442.40230813 167.7734375 445.4921875 C165.35962284 446.59247758 163.87508212 447.37799895 162.1875 449.4375 C161.72196312 452.83732993 161.89252824 456.00433119 162.08203125 459.4296875 C163.08417726 480.92545434 152.06686198 502.74375398 138.1328125 518.33203125 C126.27047908 531.10352161 111.80531605 539.55542975 95.1875 544.4375 C94.5275 544.4375 93.8675 544.4375 93.1875 544.4375 C93.09726562 545.10265625 93.00703125 545.7678125 92.9140625 546.453125 C90.45356961 556.55966569 84.13360714 566.83394239 77.1875 574.4375 C76.43726563 575.26765625 75.68703125 576.0978125 74.9140625 576.953125 C60.3402133 592.30853709 40.97783253 600.33646721 19.95410156 600.91210938 C4.45303275 601.03259601 -8.97077102 598.79966378 -22.8125 591.4375 C-23.65167969 590.99664063 -24.49085938 590.55578125 -25.35546875 590.1015625 C-43.33971596 580.00807802 -55.39131886 563.79930497 -61.76953125 544.46875 C-64.92362148 533.02795341 -65.11075254 521.76890423 -65.10302734 510.00439453 C-65.10902235 508.17001576 -65.1158301 506.3356395 -65.12338257 504.50126648 C-65.14093777 499.55337122 -65.14573312 494.60554526 -65.14701414 489.65762186 C-65.14844075 486.56326366 -65.15271967 483.46892281 -65.15800858 480.37456894 C-65.17646474 469.57196695 -65.18468357 458.76941411 -65.18310547 447.96679688 C-65.18190098 437.90550125 -65.2030748 427.84441906 -65.2345928 417.7831775 C-65.26073255 409.12982461 -65.27147393 400.47654164 -65.27019465 391.82314956 C-65.26968492 386.66093465 -65.27537637 381.49891024 -65.29655075 376.33673477 C-65.31589764 371.48893495 -65.316082 366.64150835 -65.30151749 361.79369545 C-65.29942481 360.01593672 -65.30415754 358.23815479 -65.3162384 356.46043587 C-65.33167053 354.03235792 -65.32239772 351.6055708 -65.30697632 349.17752075 C-65.31726344 348.47557591 -65.32755057 347.77363106 -65.33814943 347.05041516 C-65.268449 342.07961822 -63.9334546 339.25982937 -60.8125 335.4375 C-57.8125 333.4375 -57.8125 333.4375 -52.8125 333.4375 C-52.8125 323.8675 -52.8125 314.2975 -52.8125 304.4375 C-54.7925 304.1075 -56.7725 303.7775 -58.8125 303.4375 C-61.71132247 301.37611514 -63.41125561 299.77416076 -64.44921875 296.31640625 C-65.24769831 291.2250258 -64.89642315 287.75499241 -61.8125 283.4375 C-58.42351532 280.83058871 -57.18515387 280.4375 -52.8125 280.4375 C-52.8125 270.8675 -52.8125 261.2975 -52.8125 251.4375 C-55.1225 251.1075 -57.4325 250.7775 -59.8125 250.4375 C-64.34246217 245.7883283 -64.96130334 242.50355671 -64.95967102 236.25010681 C-64.96334771 235.50085184 -64.9670244 234.75159687 -64.9708125 233.97963721 C-64.98187345 231.45508659 -64.98569743 228.93057711 -64.98950195 226.40600586 C-64.99576538 224.60080331 -65.00241207 222.79560206 -65.00941467 220.99040222 C-65.03049269 215.04439192 -65.04082865 209.09838128 -65.05078125 203.15234375 C-65.05482907 201.10284474 -65.058946 199.05334586 -65.06313133 197.00384712 C-65.08220053 187.36360736 -65.09642124 177.72337529 -65.1047433 168.08312029 C-65.11448691 156.98027039 -65.14072359 145.8776214 -65.18124419 134.7748422 C-65.21151962 126.18182431 -65.22622344 117.58886355 -65.22952431 108.9957934 C-65.23186415 103.87051239 -65.24068278 98.74544553 -65.26598549 93.62022209 C-65.28946803 88.784849 -65.29341935 83.94982789 -65.28322411 79.11441231 C-65.2827333 77.35256395 -65.28891694 75.59069708 -65.30278015 73.8289032 C-65.45658486 53.09874156 -61.53080414 34.02624148 -46.8125 18.4375 C-33.96581235 6.10557509 -17.68334573 -0.17999043 0 0 Z " fill="#E28DB9" transform="translate(340.8125,-0.4375)"/>
<path d="M0 0 C1.04953857 0.00757324 2.09907715 0.01514648 3.18041992 0.02294922 C20.92241641 0.39813692 34.65455363 6.9475483 47.1875 19.4375 C47.82558594 20.05238281 48.46367187 20.66726562 49.12109375 21.30078125 C56.68441648 29.16731069 63.1875 41.43507308 63.1875 52.4375 C63.96351563 52.28152344 64.73953125 52.12554687 65.5390625 51.96484375 C85.01009098 48.45634101 103.70700897 52.5630375 120.0234375 63.68945312 C136.14645745 75.56674449 146.89802414 92.88277238 150.58203125 112.54296875 C151.82854616 120.86968836 151.25876462 129.13519923 150.1875 137.4375 C150.84234375 137.87578125 151.4971875 138.3140625 152.171875 138.765625 C173.78117628 153.78225809 186.95998679 174.23169137 191.9140625 200.25390625 C195.87138599 226.82073795 189.23347218 250.43148626 174.1875 272.4375 C174.74824219 272.68113281 175.30898438 272.92476563 175.88671875 273.17578125 C180.58433863 275.75189538 184.28922097 279.80597723 188.1875 283.4375 C188.79980469 283.97246094 189.41210938 284.50742187 190.04296875 285.05859375 C208.58584344 302.01585445 216.81994296 328.70109941 218.06396484 353.03637695 C219.05506029 380.92667882 209.34681205 406.64803564 190.4375 427.05859375 C189.32375 428.23615234 189.32375 428.23615234 188.1875 429.4375 C187.5275 430.15035156 186.8675 430.86320312 186.1875 431.59765625 C180.90042668 437.12989628 174.84582806 442.40230813 167.7734375 445.4921875 C165.35962284 446.59247758 163.87508212 447.37799895 162.1875 449.4375 C161.72196312 452.83732993 161.89252824 456.00433119 162.08203125 459.4296875 C163.08417726 480.92545434 152.06686198 502.74375398 138.1328125 518.33203125 C126.27047908 531.10352161 111.80531605 539.55542975 95.1875 544.4375 C94.5275 544.4375 93.8675 544.4375 93.1875 544.4375 C93.09726562 545.10265625 93.00703125 545.7678125 92.9140625 546.453125 C90.45356961 556.55966569 84.13360714 566.83394239 77.1875 574.4375 C76.43726563 575.26765625 75.68703125 576.0978125 74.9140625 576.953125 C60.3402133 592.30853709 40.97783253 600.33646721 19.95410156 600.91210938 C4.45303275 601.03259601 -8.97077102 598.79966378 -22.8125 591.4375 C-23.65167969 590.99664063 -24.49085938 590.55578125 -25.35546875 590.1015625 C-43.33971596 580.00807802 -55.39131886 563.79930497 -61.76953125 544.46875 C-64.92362148 533.02795341 -65.11075254 521.76890423 -65.10302734 510.00439453 C-65.10902235 508.17001576 -65.1158301 506.3356395 -65.12338257 504.50126648 C-65.14093777 499.55337122 -65.14573312 494.60554526 -65.14701414 489.65762186 C-65.14844075 486.56326366 -65.15271967 483.46892281 -65.15800858 480.37456894 C-65.17646474 469.57196695 -65.18468357 458.76941411 -65.18310547 447.96679688 C-65.18190098 437.90550125 -65.2030748 427.84441906 -65.2345928 417.7831775 C-65.26073255 409.12982461 -65.27147393 400.47654164 -65.27019465 391.82314956 C-65.26968492 386.66093465 -65.27537637 381.49891024 -65.29655075 376.33673477 C-65.31589764 371.48893495 -65.316082 366.64150835 -65.30151749 361.79369545 C-65.29942481 360.01593672 -65.30415754 358.23815479 -65.3162384 356.46043587 C-65.33167053 354.03235792 -65.32239772 351.6055708 -65.30697632 349.17752075 C-65.31726344 348.47557591 -65.32755057 347.77363106 -65.33814943 347.05041516 C-65.268449 342.07961822 -63.9334546 339.25982937 -60.8125 335.4375 C-57.08768283 332.95428856 -54.12800575 332.78938375 -49.8125 333.4375 C-46.54728198 334.66989746 -43.69015645 336.19242305 -41.6324892 339.11150837 C-40.4850923 342.36622878 -40.54181418 345.49595914 -40.56767273 348.90336609 C-40.56540816 349.65841346 -40.56314358 350.41346083 -40.56081039 351.19138843 C-40.55551006 353.72362497 -40.56434946 356.25561737 -40.57299805 358.7878418 C-40.57188517 360.6031909 -40.56982737 362.41853964 -40.56689453 364.23388672 C-40.56216838 368.14676094 -40.56329691 372.05957517 -40.56867027 375.97244835 C-40.57628251 382.17339264 -40.56561901 388.37422157 -40.5514679 394.57514954 C-40.51374365 412.2100159 -40.49549287 429.84483142 -40.50708008 447.47973633 C-40.51332049 457.2170727 -40.50158868 466.95422346 -40.47063476 476.69151431 C-40.45208758 482.84038314 -40.45519819 488.98872192 -40.47480237 495.13758123 C-40.48174524 498.98875596 -40.46760652 502.83965143 -40.44785309 506.69077301 C-40.44285783 508.45905814 -40.44615365 510.22739227 -40.45898628 511.99563789 C-40.58066963 530.06792092 -37.20466507 546.45653602 -24.5625 560.1875 C-12.2286311 571.69359247 3.21761247 576.98549802 19.8828125 576.69140625 C34.48197378 575.56972128 48.39687797 569.00236987 58.546875 558.44921875 C61.5689444 554.74358604 63.89053686 550.61915084 66.1875 546.4375 C64.81078125 546.38142578 64.81078125 546.38142578 63.40625 546.32421875 C47.66576087 545.48097826 47.66576087 545.48097826 41.1875 539.8125 C38.64495897 535.52196201 38.19806029 532.31273932 39.1875 527.4375 C41.24588525 524.10149633 42.9268264 522.6112824 46.1875 520.4375 C50.68795321 520.12167872 54.48761475 520.437119 58.875 521.4375 C76.10466499 525.05101637 93.37000368 520.4161316 108.1875 511.4375 C122.69007907 501.73549648 132.45965494 486.44907466 136.1875 469.4375 C136.93793528 465.4478441 137.58721739 461.45203822 138.1875 457.4375 C137.47062012 457.57824951 136.75374023 457.71899902 136.01513672 457.86401367 C128.39299206 459.26077076 121.05448521 459.78971134 113.3125 459.75 C112.1771582 459.74508545 111.04181641 459.7401709 109.87207031 459.73510742 C89.48467794 459.4505711 89.48467794 459.4505711 82.375 453.875 C79.02472805 450.14183982 78.79662383 447.64830614 78.828125 442.765625 C79.43294278 438.84745764 81.35626757 437.13391184 84.1875 434.4375 C88.85400633 432.10424684 94.78962081 433.2549641 99.6875 434.4375 C118.66037308 438.57488665 139.47621416 434.20171793 155.88842773 424.15722656 C173.74211241 412.67310859 184.8487835 397.15250955 190.6796875 376.78125 C195.65994165 353.79546163 191.92495785 332.50549689 180.1875 312.4375 C178.07253722 309.19455707 175.78898955 306.30080969 173.1875 303.4375 C172.53394531 302.69242187 171.88039063 301.94734375 171.20703125 301.1796875 C161.75655113 291.02343382 149.82694842 285.52630405 137.1875 280.4375 C129.24435712 277.17997616 129.24435712 277.17997616 127.1875 274.4375 C125.98106434 270.81819302 125.86481441 268.24518995 126.1875 264.4375 C127.8156946 261.35556022 129.21759062 259.17329333 132 257.0625 C138.98172969 255.06772009 145.49246588 257.40356558 152.1875 259.4375 C162.28664339 246.02048242 167.79820962 232.40065076 167.5625 215.5 C167.55234863 214.44458008 167.54219727 213.38916016 167.53173828 212.30175781 C167.14656768 192.99545448 159.30219151 178.4148616 145.86328125 164.84765625 C144.07529175 163.34307767 142.31153366 162.39539753 140.1875 161.4375 C139.57003906 162.283125 138.95257813 163.12875 138.31640625 164 C122.3233059 185.5660195 122.3233059 185.5660195 109.796875 187.87890625 C105.87310204 188.08029195 103.69707491 187.73023452 100.25 185.75 C97.31134949 182.45514943 96.43616724 179.86733664 95.6875 175.5625 C96.42932711 170.92608055 98.747879 168.52906411 102.1875 165.4375 C103.79623348 164.33015512 105.42247423 163.24794876 107.0625 162.1875 C115.76609669 156.2978481 122.19783717 146.74215668 124.80371094 136.52539062 C127.02746577 124.42771164 126.74580017 111.07474296 120.1875 100.4375 C119.61773437 99.48746094 119.04796875 98.53742188 118.4609375 97.55859375 C111.35560871 86.81288046 100.83282497 79.23332236 88.1875 76.4375 C73.88104068 74.76831682 61.27579583 76.04885125 49.375 84.6875 C44.21805609 89.03217802 39.62557691 94.06943499 35.671875 99.53125 C33.01126451 103.0982223 31.17419811 104.86847828 26.6875 105.625 C22.1495959 105.79335395 19.59090663 104.50886696 16.1875 101.4375 C13.68270647 97.15737913 12.97324564 93.2535875 14.1875 88.4375 C19.55081939 78.80132864 27.18809614 69.30951065 36.94140625 63.9140625 C38.05322266 63.18316406 38.05322266 63.18316406 39.1875 62.4375 C40.69236266 54.16075537 36.90538086 46.38674729 32.2734375 39.65625 C24.73691728 30.55761468 14.42782159 25.37027694 2.7109375 24.1875 C-8.53131616 23.66912519 -18.55126601 27.1786733 -27.3671875 34.10546875 C-35.66236116 42.0163612 -39.80455045 52.06095741 -40.15688324 63.43044245 C-40.2186576 67.47660158 -40.21251845 71.52113547 -40.19726562 75.56762695 C-40.20137608 77.39348183 -40.20683975 79.21933409 -40.21354675 81.04518127 C-40.22522633 84.95963496 -40.22777254 88.87394783 -40.22319031 92.78841591 C-40.21635889 98.97817254 -40.23228386 105.16774495 -40.25158691 111.35746765 C-40.29258038 125.60587387 -40.30399564 139.85427457 -40.31511688 154.1027298 C-40.32562429 167.17974492 -40.3423693 180.25667107 -40.38321257 193.33363122 C-40.40157546 199.487397 -40.40545932 205.6409508 -40.39827728 211.79473746 C-40.39675712 215.61794573 -40.40752771 219.4410475 -40.42165565 223.26422691 C-40.42566276 225.0375567 -40.42452573 226.81090664 -40.41788292 228.58422852 C-40.40951446 231.00382655 -40.41947594 233.42268596 -40.43395996 235.84223938 C-40.42706603 236.54457036 -40.42017209 237.24690134 -40.41306925 237.97051507 C-40.46351011 242.29215341 -41.1653751 245.00282833 -43.8125 248.4375 C-48.1953363 251.32618756 -51.60614695 252.00546579 -56.8125 251.4375 C-61.03688821 249.61333236 -62.82658135 247.54033703 -64.8125 243.4375 C-65.09708727 240.83899974 -65.22253412 238.48386932 -65.20018005 235.88934326 C-65.20556559 235.13752502 -65.21095113 234.38570677 -65.21649987 233.61110616 C-65.23078901 231.09571339 -65.22367318 228.5808462 -65.21655273 226.06542969 C-65.22225634 224.25978167 -65.22922056 222.45413726 -65.23735046 220.64849854 C-65.25531211 215.74279907 -65.25410612 210.83727823 -65.24840808 205.93155575 C-65.24531614 201.82713196 -65.25140976 197.72274247 -65.25744683 193.61832356 C-65.27150447 183.92097578 -65.26992451 174.22371602 -65.25854492 164.52636719 C-65.24710234 154.55574164 -65.26107135 144.58538629 -65.2879414 134.6147964 C-65.31019072 126.03443925 -65.31671391 117.45416631 -65.31086498 108.8737824 C-65.30751136 103.75863135 -65.30980171 98.64365285 -65.32711601 93.52852631 C-65.34272723 88.70539183 -65.33847451 83.88265185 -65.31981087 79.05953217 C-65.31616175 77.30253162 -65.31912409 75.54550096 -65.32969666 73.78852844 C-65.44466336 53.0781334 -61.51595545 34.01051464 -46.8125 18.4375 C-33.96581235 6.10557509 -17.68334573 -0.17999043 0 0 Z " fill="#010000" transform="translate(340.8125,-0.4375)"/>
<path d="M0 0 C7.69539896 7.35713967 11.60055545 16.81967926 11.9621582 27.44824219 C11.98187289 29.10602544 11.99008059 30.7639755 11.98828125 32.421875 C11.99256638 33.31432922 11.9968515 34.20678345 12.00126648 35.12628174 C12.00697937 37.00540321 12.00753262 38.88454678 12.00317383 40.76367188 C12.00002412 43.60325898 12.02347582 46.44179205 12.04882812 49.28125 C12.09748799 62.94155215 11.51158405 75.695165 2.6875 86.875 C-4.71471249 94.12104767 -13.92335105 97.56077956 -24.125 98.0625 C-32.59664986 97.90144202 -39.20518115 95.39531042 -46.3125 90.875 C-47.199375 90.318125 -48.08625 89.76125 -49 89.1875 C-59.89915152 78.28834848 -60.75530234 64.09423524 -60.77148438 49.52539062 C-60.76721436 48.60604736 -60.76294434 47.6867041 -60.75854492 46.73950195 C-60.75002601 43.94602889 -60.77889714 41.15460094 -60.81054688 38.36132812 C-60.86378319 24.88235741 -60.0920001 12.17293143 -50.3125 1.875 C-49.78785156 1.32199219 -49.26320313 0.76898438 -48.72265625 0.19921875 C-35.11351868 -12.70544582 -13.89009503 -11.61269392 0 0 Z M-34.3125 20.875 C-35.20887801 23.56413404 -35.45602592 25.20795972 -35.50537109 27.97583008 C-35.52143402 28.79710892 -35.53749695 29.61838776 -35.55404663 30.46455383 C-35.5986763 34.21504724 -35.63955477 37.96536743 -35.66259766 41.71606445 C-35.67915521 43.69177023 -35.70644262 45.66741616 -35.74462891 47.64282227 C-35.79950162 50.49787324 -35.82128639 53.35152341 -35.8359375 56.20703125 C-35.85860687 57.0853511 -35.88127625 57.96367096 -35.90463257 58.86860657 C-35.88985131 63.17708113 -35.66997633 65.99729799 -32.90478516 69.41674805 C-29.38296522 72.75647351 -27.3082831 73.27000571 -22.41796875 73.234375 C-18.69656547 72.59918186 -16.90937151 70.53520984 -14.3125 67.875 C-13.18555131 65.62110261 -13.17487014 64.37289713 -13.15136719 61.87182617 C-13.14175964 61.04724411 -13.1321521 60.22266205 -13.12225342 59.37309265 C-13.1158786 58.03405632 -13.1158786 58.03405632 -13.109375 56.66796875 C-13.10082489 55.29165031 -13.10082489 55.29165031 -13.09210205 53.88752747 C-13.08264567 51.94317785 -13.07611554 49.99881216 -13.07226562 48.05444336 C-13.06257291 45.08483746 -13.03156097 42.11592737 -13 39.14648438 C-12.99346866 37.25781661 -12.98821871 35.3691439 -12.984375 33.48046875 C-12.9720282 32.59385056 -12.9596814 31.70723236 -12.94696045 30.79374695 C-12.96820012 24.89100704 -13.88161478 21.4859508 -18 17.0625 C-24.81091501 13.5650031 -29.49427617 15.82174086 -34.3125 20.875 Z " fill="#000000" transform="translate(148.3125,449.125)"/>
<path d="M0 0 C2.01096557 1.4397124 3.8049626 2.94208762 5.59765625 4.64453125 C6.42716797 5.43150391 6.42716797 5.43150391 7.2734375 6.234375 C15.46809465 14.87638316 16.74890097 25.82375281 16.765625 37.25390625 C16.7706176 38.46509125 16.7706176 38.46509125 16.77571106 39.70074463 C16.78074871 41.40172765 16.78312037 43.10272046 16.78295898 44.80371094 C16.78513817 47.37321728 16.80330758 49.94228855 16.82226562 52.51171875 C16.87388832 67.18582712 16.38101555 80.75752756 5.78515625 92.01953125 C-2.38555255 99.59461829 -11.76248358 101.99984932 -22.77734375 101.64453125 C-31.79234972 100.76008031 -39.68803875 96.65734169 -46.40234375 90.64453125 C-48.1328125 88.2421875 -48.1328125 88.2421875 -49.58984375 85.70703125 C-50.07839844 84.87300781 -50.56695312 84.03898437 -51.0703125 83.1796875 C-55.10659943 75.49772205 -55.5652159 68.31055761 -55.60546875 59.78515625 C-55.61401886 58.36852692 -55.61401886 58.36852692 -55.6227417 56.92327881 C-55.63216051 54.92965809 -55.63871323 52.93602203 -55.64257812 50.94238281 C-55.65226747 47.91833827 -55.68331416 44.89497864 -55.71484375 41.87109375 C-55.72137661 39.92578525 -55.72662597 37.98047193 -55.73046875 36.03515625 C-55.74281555 35.14314514 -55.75516235 34.25113403 -55.7678833 33.33209229 C-55.73083305 22.70513597 -52.69483788 13.36671302 -45.4296875 5.51171875 C-32.71071035 -6.64645694 -15.40314998 -8.690883 0 0 Z M-29.40234375 24.64453125 C-30.54046164 26.92076703 -30.54027715 28.21037227 -30.56347656 30.73950195 C-30.57308411 31.58410477 -30.58269165 32.42870758 -30.59259033 33.29890442 C-30.59684021 34.21346909 -30.60109009 35.12803375 -30.60546875 36.0703125 C-30.61116882 37.01005417 -30.6168689 37.94979584 -30.6227417 38.91801453 C-30.63219849 40.90944287 -30.63872837 42.90088691 -30.64257812 44.89233398 C-30.65227151 47.93436138 -30.68328347 50.97570974 -30.71484375 54.01757812 C-30.721375 55.9518189 -30.72662499 57.88606452 -30.73046875 59.8203125 C-30.74281555 60.72880447 -30.75516235 61.63729645 -30.7678833 62.57331848 C-30.7508312 67.42604373 -30.57322563 70.70730407 -27.40234375 74.64453125 C-24.43186761 76.95490158 -21.15061652 77.11844111 -17.4375 77.03515625 C-13.74442422 76.32631253 -11.96590393 74.33314314 -9.40234375 71.64453125 C-8.51184527 68.97303581 -8.26372345 67.37877534 -8.2253418 64.63549805 C-8.21250656 63.83423996 -8.19967133 63.03298187 -8.18644714 62.20744324 C-8.17906021 61.34492447 -8.17167328 60.4824057 -8.1640625 59.59375 C-8.15599075 58.70218704 -8.14791901 57.81062408 -8.13960266 56.89204407 C-8.12577469 55.00495339 -8.11504678 53.11783783 -8.10717773 51.23071289 C-8.0899703 48.35319325 -8.04607387 45.47682444 -8.00195312 42.59960938 C-7.9918252 40.76433135 -7.98330941 38.92904357 -7.9765625 37.09375 C-7.95905441 36.23730392 -7.94154633 35.38085785 -7.92350769 34.49845886 C-7.9431246 29.0623456 -8.74545051 25.93356172 -12.40234375 21.64453125 C-19.20418039 17.10997349 -24.24108471 19.35738784 -29.40234375 24.64453125 Z " fill="#000000" transform="translate(237.40234375,316.35546875)"/>
<path d="M0 0 C8.59612539 6.25871741 13.97285638 13.85423774 15.78491211 24.4362793 C16.28815143 28.63046863 16.41179685 32.70364744 16.41796875 36.921875 C16.42296135 38.13306 16.42296135 38.13306 16.42805481 39.36871338 C16.43309246 41.0696964 16.43546412 42.77068921 16.43530273 44.47167969 C16.43748192 47.04118603 16.45565133 49.6102573 16.47460938 52.1796875 C16.52458668 66.3615432 16.22021619 80.14597425 6 91.125 C-1.69565084 98.15723267 -10.14325654 101.22738958 -20.54296875 101.34375 C-30.32991996 100.79159478 -39.7641242 97.37333154 -46.75 90.3125 C-53.88949227 80.42826959 -55.89653131 71.43945451 -55.953125 59.453125 C-55.96167511 58.03649567 -55.96167511 58.03649567 -55.97039795 56.59124756 C-55.97981676 54.59762684 -55.98636948 52.60399078 -55.99023438 50.61035156 C-55.99992372 47.58630702 -56.03097041 44.56294739 -56.0625 41.5390625 C-56.06903286 39.593754 -56.07428222 37.64844068 -56.078125 35.703125 C-56.0904718 34.81111389 -56.1028186 33.91910278 -56.11553955 33.00006104 C-56.07544746 21.50062714 -52.29462527 12.13865101 -44.625 3.625 C-32.57284278 -7.92498401 -13.81462675 -8.62239459 0 0 Z M-29.75 24.3125 C-30.88176264 26.57602528 -30.89924639 27.87681007 -30.94287109 30.39160156 C-30.95893402 31.23297668 -30.97499695 32.07435181 -30.99154663 32.94122314 C-31.03605581 36.79593078 -31.07707401 40.65046639 -31.10009766 44.50537109 C-31.11664183 46.53641226 -31.1439115 48.56739557 -31.18212891 50.59814453 C-31.23700118 53.52927805 -31.2587887 56.45904645 -31.2734375 59.390625 C-31.29610687 60.29395569 -31.31877625 61.19728638 -31.34213257 62.12799072 C-31.32756568 66.49280679 -31.14620566 69.40232367 -28.34228516 72.87011719 C-24.8188669 76.18978909 -22.73558948 76.71241429 -17.85546875 76.66796875 C-14.09430885 76.03296773 -12.34708952 74.03627681 -9.75 71.3125 C-8.85520716 68.62812148 -8.61550052 67.04383334 -8.58886719 64.28759766 C-8.57925964 63.48311188 -8.5696521 62.6786261 -8.55975342 61.84976196 C-8.5533786 60.55127823 -8.5533786 60.55127823 -8.546875 59.2265625 C-8.53832489 57.88566055 -8.53832489 57.88566055 -8.52960205 56.51766968 C-8.52015744 54.62637514 -8.51362021 52.73506419 -8.50976562 50.84375 C-8.50006027 47.95543625 -8.46903214 45.06783426 -8.4375 42.1796875 C-8.43096964 40.34115005 -8.4257193 38.50260752 -8.421875 36.6640625 C-8.4095282 35.80245514 -8.3971814 34.94084778 -8.38446045 34.0531311 C-8.40601603 28.22958045 -9.3762676 24.86206443 -13.4375 20.5 C-20.28896848 16.98167835 -24.86706174 19.31046569 -29.75 24.3125 Z " fill="#000000" transform="translate(237.75,187.6875)"/>
<path d="M0 0 C7.63829245 6.87577788 12.54486217 15.57603375 13.10728455 25.98568726 C13.16535463 28.40883372 13.19108061 30.83008792 13.203125 33.25390625 C13.20882507 34.15060532 13.21452515 35.04730438 13.22039795 35.97117615 C13.22982714 37.86822336 13.23637364 39.7652868 13.24023438 41.66235352 C13.24988537 44.52845896 13.28090584 47.39382991 13.3125 50.25976562 C13.40087869 65.44377111 12.41635068 78.19021328 1.6875 89.75 C-5.46699242 96.50445628 -14.05006283 98.91264045 -23.796875 99.03515625 C-36.08438279 98.32359153 -43.87211888 93.29810004 -52.25 84.6875 C-57.96307396 75.91385071 -59.15215003 66.84723034 -59.203125 56.61328125 C-59.21167511 55.26679756 -59.21167511 55.26679756 -59.22039795 53.89311218 C-59.22981491 51.99784511 -59.23636874 50.10256191 -59.24023438 48.20727539 C-59.24991041 45.33905713 -59.28095318 42.47156518 -59.3125 39.60351562 C-59.39756555 25.07969995 -58.5360192 13.09428206 -48.1484375 2.02734375 C-34.34034355 -10.92805914 -14.89996843 -11.20496821 0 0 Z M-33 22 C-34.13176264 24.26352528 -34.14924639 25.56431007 -34.19287109 28.07910156 C-34.20893402 28.92047668 -34.22499695 29.76185181 -34.24154663 30.62872314 C-34.28605581 34.48343078 -34.32707401 38.33796639 -34.35009766 42.19287109 C-34.36664183 44.22391226 -34.3939115 46.25489557 -34.43212891 48.28564453 C-34.48700118 51.21677805 -34.5087887 54.14654645 -34.5234375 57.078125 C-34.54610687 57.98145569 -34.56877625 58.88478638 -34.59213257 59.81549072 C-34.57756568 64.18030679 -34.39620566 67.08982367 -31.59228516 70.55761719 C-28.06754314 73.8785363 -25.98580781 74.39493303 -21.10546875 74.359375 C-17.38406547 73.72418186 -15.59687151 71.66020984 -13 69 C-11.86823736 66.73647472 -11.85075361 65.43568993 -11.80712891 62.92089844 C-11.79106598 62.07952332 -11.77500305 61.23814819 -11.75845337 60.37127686 C-11.71394419 56.51656922 -11.67292599 52.66203361 -11.64990234 48.80712891 C-11.63335817 46.77608774 -11.6060885 44.74510443 -11.56787109 42.71435547 C-11.51299882 39.78322195 -11.4912113 36.85345355 -11.4765625 33.921875 C-11.45389313 33.01854431 -11.43122375 32.11521362 -11.40786743 31.18450928 C-11.42243432 26.81969321 -11.60379434 23.91017633 -14.40771484 20.44238281 C-17.93245686 17.1214637 -20.01419219 16.60506697 -24.89453125 16.640625 C-28.61593453 17.27581814 -30.40312849 19.33979016 -33 22 Z " fill="#000000" transform="translate(147,190)"/>
<path d="M0 0 C7.87766971 5.04828312 13.83794234 11.78573371 16.2006073 20.92018127 C17.42770432 26.82370846 17.92846753 32.43470191 17.921875 38.45703125 C17.92616013 39.34902725 17.93044525 40.24102325 17.93486023 41.16004944 C17.94055865 43.03141436 17.94113729 44.90280142 17.93676758 46.77416992 C17.93360512 49.6069989 17.9571321 52.43878372 17.98242188 55.27148438 C18.03059387 68.76773376 17.21434029 80.61734072 8.62109375 91.6796875 C6.15589937 94.09807439 3.59271494 95.9307075 0.62109375 97.6796875 C-0.05695313 98.08058594 -0.735 98.48148437 -1.43359375 98.89453125 C-10.67353154 103.64988385 -20.8475422 103.55381621 -30.66015625 100.6875 C-34.69480277 99.19189827 -38.00686598 97.34374529 -41.37890625 94.6796875 C-41.99507812 94.19886719 -42.61125 93.71804688 -43.24609375 93.22265625 C-50.46930584 86.85196919 -53.28724452 78.0205097 -54.37890625 68.6796875 C-54.52160156 65.72465078 -54.54268457 62.77456574 -54.546875 59.81640625 C-54.5502034 58.98438187 -54.5535318 58.15235748 -54.55696106 57.29512024 C-54.56199932 55.54286243 -54.56437035 53.79059512 -54.56420898 52.03833008 C-54.56639126 49.38541515 -54.58456852 46.73291947 -54.60351562 44.08007812 C-54.65148663 30.05082966 -54.21721268 16.79153319 -44.19140625 5.8671875 C-32.61555749 -4.89453563 -14.04243444 -6.89462107 0 0 Z M-28.37890625 25.6796875 C-29.27369909 28.36406602 -29.51340573 29.94835416 -29.54003906 32.70458984 C-29.54964661 33.50907562 -29.55925415 34.3135614 -29.56915283 35.14242554 C-29.57340271 36.00808136 -29.57765259 36.87373718 -29.58203125 37.765625 C-29.58773132 38.65955963 -29.5934314 39.55349426 -29.5993042 40.47451782 C-29.60874881 42.36581236 -29.61528604 44.25712331 -29.61914062 46.1484375 C-29.62884598 49.03675125 -29.65987411 51.92435324 -29.69140625 54.8125 C-29.69793661 56.65103745 -29.70318695 58.48957998 -29.70703125 60.328125 C-29.71937805 61.18973236 -29.73172485 62.05133972 -29.7444458 62.9390564 C-29.72289022 68.76260705 -28.75263865 72.13012307 -24.69140625 76.4921875 C-21.2701832 78.24903177 -18.08372135 78.46189414 -14.37890625 77.6796875 C-11.35986285 75.92669456 -8.96379424 73.84946349 -7.37890625 70.6796875 C-7.264992 69.32324277 -7.20964501 67.96160075 -7.18603516 66.60058594 C-7.16997223 65.75921082 -7.1539093 64.91783569 -7.13735962 64.05096436 C-7.09285044 60.19625672 -7.05183224 56.34172111 -7.02880859 52.48681641 C-7.01226442 50.45577524 -6.98499475 48.42479193 -6.94677734 46.39404297 C-6.89190507 43.46290945 -6.87011755 40.53314105 -6.85546875 37.6015625 C-6.83279938 36.69823181 -6.81013 35.79490112 -6.78677368 34.86419678 C-6.80134057 30.49938071 -6.98270059 27.58986383 -9.78662109 24.12207031 C-13.31003935 20.80239841 -15.39331677 20.27977321 -20.2734375 20.32421875 C-24.0345974 20.95921977 -25.78181673 22.95591069 -28.37890625 25.6796875 Z " fill="#000000" transform="translate(95.37890625,315.3203125)"/>
<path d="M0 0 C8.17279499 7.77892535 12.17314204 16.24007309 12.72486877 27.6229248 C12.77263289 29.89106989 12.78975506 32.15713572 12.79296875 34.42578125 C12.79796135 35.67381783 12.79796135 35.67381783 12.80305481 36.94706726 C12.80809307 38.69932507 12.8104641 40.45159238 12.81030273 42.20385742 C12.81248501 44.85677235 12.83066227 47.50926803 12.84960938 50.16210938 C12.89758038 64.19135784 12.46330643 77.45065431 2.4375 88.375 C-6.3467821 96.54148644 -16.3407942 98.03023258 -27.83984375 97.8359375 C-38.76646048 97.38281153 -45.28626518 91.79258857 -52.625 84.25 C-58.28077681 75.56434275 -59.5261032 66.56765132 -59.578125 56.4296875 C-59.58382507 55.55659943 -59.58952515 54.68351135 -59.59539795 53.78396606 C-59.60481436 51.93997394 -59.61136852 50.09596524 -59.61523438 48.25195312 C-59.62489716 45.46713908 -59.65593483 42.68307738 -59.6875 39.8984375 C-59.76933004 26.31191071 -59.15100943 13.68142597 -50.375 2.5625 C-36.79156394 -10.73436568 -14.69888194 -12.44794615 0 0 Z M-33.375 21.5625 C-34.50676264 23.82602528 -34.52424639 25.12681007 -34.56787109 27.64160156 C-34.58393402 28.48297668 -34.59999695 29.32435181 -34.61654663 30.19122314 C-34.66105581 34.04593078 -34.70207401 37.90046639 -34.72509766 41.75537109 C-34.74164183 43.78641226 -34.7689115 45.81739557 -34.80712891 47.84814453 C-34.86200118 50.77927805 -34.8837887 53.70904645 -34.8984375 56.640625 C-34.92110687 57.54395569 -34.94377625 58.44728638 -34.96713257 59.37799072 C-34.95256568 63.74280679 -34.77120566 66.65232367 -31.96728516 70.12011719 C-28.4438669 73.43978909 -26.36058948 73.96241429 -21.48046875 73.91796875 C-17.71930885 73.28296773 -15.97208952 71.28627681 -13.375 68.5625 C-12.47862199 65.87336596 -12.23147408 64.22954028 -12.18212891 61.46166992 C-12.16606598 60.64039108 -12.15000305 59.81911224 -12.13345337 58.97294617 C-12.0888237 55.22245276 -12.04794523 51.47213257 -12.02490234 47.72143555 C-12.00834479 45.74572977 -11.98105738 43.77008384 -11.94287109 41.79467773 C-11.88799838 38.93962676 -11.86621361 36.08597659 -11.8515625 33.23046875 C-11.82889313 32.3521489 -11.80622375 31.47382904 -11.78286743 30.56889343 C-11.79764869 26.26041887 -12.01752367 23.44020201 -14.78271484 20.02075195 C-18.30453478 16.68102649 -20.3792169 16.16749429 -25.26953125 16.203125 C-28.99093453 16.83831814 -30.77812849 18.90229016 -33.375 21.5625 Z " fill="#000000" transform="translate(194.375,61.4375)"/>
<path d="M0 0 C4.04714093 2.46347709 5.62649364 4.52497187 7 9 C7.19231841 11.81736053 7.28365846 14.53487323 7.2746582 17.35107422 C7.2823246 18.59351395 7.2823246 18.59351395 7.29014587 19.86105347 C7.30401716 22.59233884 7.30308683 25.32337114 7.30078125 28.0546875 C7.3046698 29.95891412 7.3090048 31.86313987 7.31376648 33.7673645 C7.32122359 37.75688489 7.32094129 41.74631678 7.31567383 45.73583984 C7.30988278 50.83907381 7.32680389 55.94194442 7.3500185 61.04511833 C7.36477767 64.97773341 7.36562451 68.91026145 7.36250877 72.84289932 C7.36302098 74.72389571 7.36823982 76.6048971 7.37832069 78.48586655 C7.39070884 81.12086069 7.38387909 83.75515313 7.37231445 86.39013672 C7.38378006 87.54684875 7.38378006 87.54684875 7.39547729 88.72692871 C7.33963572 94.50679202 6.30966074 99.43371029 2.3125 103.875 C-1.04584394 105.50878894 -4.29783483 106.12126553 -8 106 C-12.20612545 104.49214371 -14.7116104 102.85412986 -17 99 C-18.25721263 95.2283621 -18.1555954 91.69800167 -18.16113281 87.76831055 C-18.16609772 86.92894958 -18.17106262 86.08958862 -18.17617798 85.22479248 C-18.19079379 82.44542625 -18.19760082 79.66611711 -18.203125 76.88671875 C-18.20887716 74.95481871 -18.21463489 73.02291869 -18.22039795 71.09101868 C-18.23090644 67.03829685 -18.23675003 62.98559486 -18.24023438 58.93286133 C-18.24571718 53.74430123 -18.26974132 48.55600381 -18.29820633 43.36752605 C-18.31684696 39.37577046 -18.32203908 35.38407793 -18.32357025 31.39228249 C-18.32659435 29.47975034 -18.33461468 27.56721924 -18.34775543 25.65472984 C-18.36484483 22.97624209 -18.36292859 20.29839348 -18.35644531 17.61987305 C-18.3656601 16.83264359 -18.37487488 16.04541412 -18.3843689 15.23432922 C-18.3479816 10.42587598 -17.60782492 7.18909003 -15 3 C-10.36966203 -1.19624378 -5.94273782 -1.49729136 0 0 Z " fill="#000000" transform="translate(153,312)"/>
<path d="M0 0 C4.04775586 2.46385139 5.63018873 4.52272244 7 9 C7.19757466 11.88259912 7.29381113 14.66857598 7.29052734 17.55053711 C7.30060318 18.82464699 7.30060318 18.82464699 7.31088257 20.12449646 C7.32984247 22.92550545 7.33378552 25.72627463 7.3359375 28.52734375 C7.34236602 30.47880654 7.34909442 32.43026836 7.35610962 34.38172913 C7.36807678 38.46959671 7.37179094 42.55737981 7.37060547 46.64526367 C7.37040213 51.87871495 7.39772239 57.11162411 7.43214989 62.34494686 C7.45440421 66.37446066 7.45844348 70.40384359 7.45738602 74.43341255 C7.45974348 76.36269565 7.46857522 78.29198228 7.48405075 80.22120476 C7.50368425 82.92121093 7.49788362 85.62004259 7.48583984 88.32006836 C7.49707886 89.11350647 7.50831787 89.90694458 7.51989746 90.72442627 C7.46105257 95.92548848 6.42968175 98.87031088 3 103 C-0.41984276 105.40943467 -2.95135056 106.24719111 -7.0625 105.9375 C-10.94415297 105.23984153 -13.28828264 103.95098654 -16 101 C-18.03595425 96.21648907 -18.29131298 91.7514853 -18.2746582 86.62719727 C-18.27976913 85.80851166 -18.28488007 84.98982605 -18.29014587 84.14633179 C-18.3039915 81.45294792 -18.30308898 78.75982137 -18.30078125 76.06640625 C-18.30467078 74.18602911 -18.30900599 72.30565285 -18.31376648 70.42527771 C-18.32121775 66.48881173 -18.32094521 62.55243546 -18.31567383 58.6159668 C-18.30987896 53.58114101 -18.32681595 48.54668306 -18.3500185 43.51191807 C-18.36477709 39.62991706 -18.36562467 35.74800424 -18.36250877 31.86598015 C-18.36302086 30.01010344 -18.36823738 28.15422165 -18.37832069 26.29837227 C-18.39070985 23.69940661 -18.3838789 21.10115224 -18.37231445 18.50219727 C-18.38378006 17.3618679 -18.38378006 17.3618679 -18.39547729 16.19850159 C-18.34548822 11.09466347 -17.35951842 7.54571042 -15 3 C-10.45543164 -1.26053283 -5.89088828 -1.48422771 0 0 Z " fill="#000000" transform="translate(59,183)"/>
<path d="M0 0 C3.57111162 2.01845439 4.73469936 3.25646215 6.11663818 7.1295166 C7.05709013 11.25014259 7.28176103 15.10409268 7.25878906 19.30273438 C7.2622937 20.10205887 7.26579834 20.90138336 7.26940918 21.72492981 C7.27815917 24.34796013 7.27240127 26.97071728 7.265625 29.59375 C7.26697359 31.42785697 7.26891573 33.26196359 7.27142334 35.09606934 C7.27436548 38.93240781 7.27010625 42.76865289 7.26074219 46.60498047 C7.24934822 51.51079493 7.25591257 56.41639052 7.26788712 61.32219696 C7.27513029 65.1072554 7.2728065 68.89226236 7.26763153 72.67732239 C7.26630183 74.48574347 7.26791883 76.2941693 7.27259064 78.10258484 C7.27769635 80.63427024 7.26988913 83.16560611 7.25878906 85.69726562 C7.26283752 86.43721268 7.26688599 87.17715973 7.27105713 87.93952942 C7.22466707 93.68009211 6.80384116 98.98394223 2.875 103.375 C-0.78193707 105.44196443 -3.80315904 106.19788641 -8 106 C-13.25636658 104.28157246 -15.39588997 101.79953486 -18 97 C-18.55066971 94.06721554 -18.53756644 91.20572895 -18.50170898 88.22827148 C-18.50711197 87.36735901 -18.51251495 86.50644653 -18.51808167 85.6194458 C-18.5305439 82.78630732 -18.51409611 79.95418994 -18.49609375 77.12109375 C-18.49624878 75.14624478 -18.49773846 73.1713955 -18.50050354 71.19654846 C-18.50188636 67.06326807 -18.48934775 62.93033519 -18.46655273 58.79711914 C-18.43814997 53.50198856 -18.4409121 48.20743437 -18.45364285 42.91226101 C-18.46060057 38.8364419 -18.45280995 34.76075581 -18.44038582 30.68495369 C-18.43587355 28.7325396 -18.43553256 26.78011122 -18.43945122 24.82769585 C-18.4423648 22.09894446 -18.42585009 19.37098521 -18.40405273 16.64233398 C-18.40855438 15.8375209 -18.41305603 15.03270782 -18.41769409 14.20350647 C-18.3569258 9.62002626 -17.82503375 6.65410481 -15 3 C-10.2726962 -1.13639082 -6.0081211 -1.49029566 0 0 Z " fill="#000000" transform="translate(247,54)"/>
<path d="M0 0 C4.04719816 2.46351192 5.62928772 4.5236454 7 9 C7.19248551 11.85280762 7.28364533 14.60702677 7.2746582 17.45874023 C7.2823246 18.71821976 7.2823246 18.71821976 7.29014587 20.00314331 C7.30401701 22.77169981 7.30308702 25.54000669 7.30078125 28.30859375 C7.30466943 30.23763623 7.30900436 32.16667786 7.31376648 34.09571838 C7.32122328 38.13651303 7.32094123 42.17722029 7.31567383 46.21801758 C7.30987879 51.39085021 7.32681369 56.56332484 7.3500185 61.73609829 C7.36476468 65.71928491 7.36562635 69.70238548 7.36250877 73.68559456 C7.3630215 75.59253715 7.36825015 77.49948461 7.37832069 79.40640068 C7.39068539 82.07512422 7.38389339 84.74315245 7.37231445 87.41186523 C7.38378006 88.58799629 7.38378006 88.58799629 7.39547729 89.78788757 C7.34206397 95.37002058 6.24311351 99.59072994 2.3125 103.8125 C-1.0300923 105.52896632 -4.280335 106.12183874 -8 106 C-12.20612545 104.49214371 -14.7116104 102.85412986 -17 99 C-18.24681021 95.25956937 -18.15556532 91.77262055 -18.16113281 87.87597656 C-18.16609772 87.04797546 -18.17106262 86.21997437 -18.17617798 85.36688232 C-18.19079462 82.62478811 -18.19760142 79.88275179 -18.203125 77.140625 C-18.20887767 75.23354084 -18.21463539 73.32645669 -18.22039795 71.41937256 C-18.23090708 67.41792532 -18.23675006 63.41649816 -18.24023438 59.41503906 C-18.24571332 54.29607794 -18.26972893 49.17738358 -18.29820633 44.05850601 C-18.3168634 40.11732213 -18.32203999 36.17620203 -18.32357025 32.23497772 C-18.3265913 30.34839167 -18.33460129 28.46180659 -18.34775543 26.57526398 C-18.36487715 23.9305058 -18.36292061 21.28639322 -18.35644531 18.64160156 C-18.3656601 17.86731812 -18.37487488 17.09303467 -18.3843689 16.29528809 C-18.34504574 11.14857632 -17.38610355 7.58111163 -15 3 C-10.45543164 -1.26053283 -5.89088828 -1.48422771 0 0 Z " fill="#000000" transform="translate(106,54)"/>
<path d="M0 0 C4.15241431 3.22965558 5.67743889 5.98312065 7 11 C7.18357501 13.76512885 7.27383037 16.42671563 7.25878906 19.18920898 C7.2622937 19.98838745 7.26579834 20.78756592 7.26940918 21.61096191 C7.27817499 24.23942889 7.27239504 26.86762427 7.265625 29.49609375 C7.26697326 31.33162996 7.26891514 33.16716582 7.27142334 35.00270081 C7.27436774 38.84501555 7.27009945 42.68723713 7.26074219 46.52954102 C7.24935614 51.44323119 7.25590611 56.35670266 7.26788712 61.27038479 C7.27513105 65.05973442 7.27280602 68.84903264 7.26763153 72.63838387 C7.26630162 74.44959604 7.26791957 76.26081294 7.27259064 78.07201958 C7.27769669 80.60860343 7.2698883 83.14483846 7.25878906 85.68139648 C7.26283752 86.42291458 7.26688599 87.16443268 7.27105713 87.92842102 C7.22490731 93.6510814 6.7845981 98.94500825 2.9375 103.375 C-0.99852691 105.55237659 -4.51088757 106.22037461 -9 106 C-12.26668379 104.5797027 -14.7184863 102.73781644 -17 100 C-18.27439689 96.17680932 -18.16380656 92.56950198 -18.17700195 88.5847168 C-18.18685875 87.29641464 -18.18685875 87.29641464 -18.19691467 85.98208618 C-18.21663685 83.13779615 -18.22830741 80.29355888 -18.23828125 77.44921875 C-18.24235678 76.47756083 -18.2464323 75.5059029 -18.25063133 74.5048008 C-18.27148672 69.36265907 -18.28579117 64.220544 -18.29516602 59.07836914 C-18.30623382 53.76866682 -18.34063961 48.45938318 -18.38033772 43.14982891 C-18.40648637 39.06542686 -18.41485626 34.98112489 -18.41844749 30.8966465 C-18.42331739 28.93944277 -18.43494282 26.98224363 -18.45348549 25.02512169 C-18.4778413 22.28423257 -18.47691855 19.54443107 -18.4699707 16.8034668 C-18.48278076 15.99753586 -18.49559082 15.19160492 -18.50878906 14.36125183 C-18.46054916 9.13161299 -17.49535743 6.12651296 -14 2 C-9.0315771 -0.90605867 -5.55241484 -1.64515995 0 0 Z " fill="#000000" transform="translate(247,441)"/>
<path d="M0 0 C4.15877706 3.95083821 4.92583805 7.06684989 5.14044189 12.6608429 C5.15245495 14.15578022 5.15896085 15.65076794 5.16113281 17.14575195 C5.16609772 17.96414551 5.17106262 18.78253906 5.17617798 19.62573242 C5.19076829 22.32992396 5.19759643 25.03405683 5.203125 27.73828125 C5.20887909 29.62151592 5.21463679 31.50475058 5.22039795 33.38798523 C5.23089907 37.33637769 5.23674753 41.28474984 5.24023438 45.2331543 C5.24571682 50.28370689 5.26974331 55.33398958 5.29820633 60.38445759 C5.31686271 64.27502722 5.32203991 68.16553223 5.32357025 72.05614281 C5.32659059 73.91760928 5.33459818 75.77907478 5.34775543 77.64049721 C5.36487856 80.24922644 5.36292049 82.85730127 5.35644531 85.46606445 C5.3656601 86.22942612 5.37487488 86.99278778 5.3843689 87.77928162 C5.33973431 93.54214808 4.26611338 98.38525379 0.375 102.875 C-3.33942735 104.63446559 -6.89542433 105.22803198 -11 105 C-16.05652249 102.65901737 -17.95428424 100.08860951 -20 95 C-20.41087046 92.13667753 -20.4106037 89.31674971 -20.38818359 86.42773438 C-20.39344055 85.58793533 -20.39869751 84.74813629 -20.40411377 83.88288879 C-20.41726776 81.11965075 -20.40859207 78.35699344 -20.3984375 75.59375 C-20.40045956 73.66613658 -20.4033721 71.7385239 -20.40713501 69.81091309 C-20.41155213 65.77604877 -20.40514698 61.74138404 -20.39111328 57.70654297 C-20.37402182 52.54156354 -20.38386627 47.37705182 -20.40183067 42.21208954 C-20.41268501 38.23317966 -20.40921458 34.25438017 -20.4014473 30.27546692 C-20.39944986 28.37132207 -20.40188851 26.4671671 -20.40888596 24.56303406 C-20.41652758 21.89917552 -20.40485842 19.23606839 -20.38818359 16.57226562 C-20.39425629 15.7897493 -20.40032898 15.00723297 -20.40658569 14.20100403 C-20.35118959 9.41013104 -19.58781347 6.17709939 -17 2 C-11.78123499 -2.8820705 -6.38686946 -2.39507605 0 0 Z " fill="#000000" transform="translate(202,442)"/>
<path d="M0 0 C2.84632697 1.60879351 5.32317703 3.45995167 7.875 5.49609375 C17.07647195 12.70271533 25.44906765 14.06838137 36.93164062 13.25439453 C45.26953728 12.22888836 51.97447299 7.746781 58.2578125 2.453125 C60.54975213 0.54146235 61.75091362 0.02830527 64.75 -0.3125 C69.78992823 0.17210848 72.6864566 2.47459476 75.9375 6.25 C77.43082704 10.11508176 77.35419342 13.15836708 76 17 C69.76359548 27.63492824 57.15281551 33.17295691 45.77734375 36.30859375 C44.86082031 36.53675781 43.94429688 36.76492187 43 37 C42.36835938 37.19078125 41.73671875 37.3815625 41.0859375 37.578125 C27.04415356 40.41803636 11.74829509 36.93733903 -0.421875 29.77734375 C-12.46605719 21.47415754 -12.46605719 21.47415754 -15 15 C-15.50818509 11.1039143 -15.1671889 9.31580125 -13.3125 5.8125 C-9.4522567 1.1176095 -6.15792514 -0.87970359 0 0 Z " fill="#040203" transform="translate(333,123)"/>
<path d="M0 0 C3.50745952 2.04601805 5.73959779 4.10421136 7 8 C7.7006705 13.37180719 6.17373749 15.74051021 3 20 C-4.66264052 30.74370224 -7.24821665 38.50804026 -6 52 C-4.33176343 59.55890244 -0.84098396 65.08776189 4 71 C6.7433117 74.84063639 7.67738002 77.25833989 7 82 C4.71274624 86.32036821 2.52914866 89.05893629 -2 91 C-5.74346535 91.55753739 -7.55640992 91.22651408 -10.9375 89.5 C-21.61224649 80.78592123 -28.81710449 67.88081889 -30.31738281 54.08056641 C-30.47291758 50.9633487 -30.51885872 47.87099855 -30.5 44.75 C-30.49427979 43.64897949 -30.48855957 42.54795898 -30.48266602 41.41357422 C-30.15714914 26.54501561 -24.7824817 13.49292511 -14.1875 2.8125 C-9.75724262 -0.77307796 -5.49812954 -1.20182866 0 0 Z " fill="#030102" transform="translate(417,222)"/>
<path d="M0 0 C3.36830836 2.12349875 5.91618162 4.09825382 7 8 C6.86408155 12.28143105 6.53755446 14.97163495 4.5625 18.75 C2.01822763 20.98399525 0.43652165 21.69192702 -2.6875 22.8125 C-10.10031326 25.54987565 -15.68753895 30.0212593 -19.25390625 37.12890625 C-21.39734121 42.2421544 -21.36283158 46.78643378 -21.0625 52.25 C-20.5409217 62.77498294 -20.5409217 62.77498294 -24 67 C-27.43022566 69.84218697 -30.52959766 70.60013961 -35.00390625 70.4140625 C-38.65127097 69.6574663 -40.54947194 67.68391169 -43 65 C-47.09159034 55.94507155 -46.36655625 42.6949619 -44.08984375 33.20703125 C-42.91902373 30.29692232 -41.61264076 27.68773461 -40 25 C-39.33097656 23.81277344 -39.33097656 23.81277344 -38.6484375 22.6015625 C-31.11759182 10.27453577 -15.6069339 -3.96269806 0 0 Z " fill="#020102" transform="translate(392,382)"/>
<path d="M0 0 C3.79259576 2.04216695 7.00344184 4.11780358 9 8 C9.4065857 11.72703559 9.32666609 14.219631 7.875 17.6875 C4.61705149 21.70563649 1.65938765 23.76294462 -3.5 24.5 C-7.70093265 23.89986676 -9.79326564 22.75928305 -13 20 C-15.4917577 16.20819481 -15.21194884 12.50816221 -14.6171875 8.15625 C-13.65585931 4.79768571 -11.69615352 3.10431494 -9 1 C-5.89046621 -0.5547669 -3.43733239 -0.28644437 0 0 Z " fill="#020102" transform="translate(291,280)"/>
</svg>
